#!OML:ASF F:\VICON\USERDATA\INSTALL\rory3\rory3.ASF
:FULLY-SPECIFIED
:DEGREES
377
root -2.51368 17.9422 15.47 201.599 -81.3716 -205.211
lowerback 11.0962 2.81909 -2.39469
upperback 1.5369 3.32708 -1.08794
thorax -4.67953 1.64398 -0.284635
lowerneck -20.0257 -7.15345 -13.0094
upperneck 26.9358 -10.0695 11.8057
head 13.8098 -4.40521 5.02802
rclavicle 1.45113e-014 1.88845e-015
rhumerus -33.815 -14.4282 -80.6501
rradius 29.9559
rwrist 6.94178
rhand -15.0862 10.2678
rfingers 7.12502
rthumb 11.0816 -19.4197
lclavicle 1.45113e-014 1.88845e-015
lhumerus -38.2108 9.71413 79.3864
lradius 26.124
lwrist -8.7107
lhand -16.3292 24.4389
lfingers 7.12502
lthumb 9.88256 54.1869
rfemur -1.45175 -2.68318 16.443
rtibia 59.7759
rfoot 12.5614 -4.95694
rtoes 24.6355
lfemur -6.55207 0.615486 -24.9646
ltibia 10.6806
lfoot 2.45986 -6.43591
ltoes -5.02451
378
root -2.64449 17.9501 15.4808 203.042 -81.3883 -206.886
lowerback 11.2439 2.72552 -2.66407
upperback 1.562 3.16524 -1.04932
thorax -4.74949 1.56812 -0.0756225
lowerneck -20.136 -7.0689 -13.1073
upperneck 27.1955 -9.9017 11.7122
head 13.9159 -4.35359 5.04849
rclavicle -2.61278e-014 1.18277e-014
rhumerus -33.9504 -14.1866 -80.5176
rradius 29.9268
rwrist 7.46502
rhand -15.0384 10.1758
rfingers 7.12502
rthumb 11.1277 -19.5092
lclavicle -2.61278e-014 1.18277e-014
lhumerus -38.2005 9.5257 79.4843
lradius 26.5335
lwrist -8.60208
lhand -16.5413 24.344
lfingers 7.12502
lthumb 9.67795 54.1017
rfemur -2.55743 -3.25578 15.9827
rtibia 61.7523
rfoot 12.3392 -5.36329
rtoes 25.3841
lfemur -5.19302 0.752662 -25.3119
ltibia 9.41454
lfoot 2.60428 -6.6698
ltoes -4.63036
379
root -2.77227 17.9559 15.4907 204.558 -81.4299 -208.647
lowerback 11.4607 2.58859 -2.87284
upperback 1.5322 2.94491 -1.08668
thorax -4.905 1.46296 0.0256373
lowerneck -20.1825 -6.9191 -12.9569
upperneck 27.4983 -9.7027 11.4974
head 13.9983 -4.28249 4.98384
rclavicle -2.11147e-014 1.0635e-014
rhumerus -34.0978 -13.6616 -80.6679
rradius 29.8529
rwrist 7.29822
rhand -15.2635 10.3553
rfingers 7.12502
rthumb 10.9106 -19.3413
lclavicle -2.11147e-014 1.0635e-014
lhumerus -38.2896 8.96834 79.6103
lradius 27.037
lwrist -7.87946
lhand -16.8112 24.2821
lfingers 7.12502
lthumb 9.41752 54.0517
rfemur -3.60881 -3.9241 15.5361
rtibia 63.5412
rfoot 11.5488 -5.8054
rtoes 24.4244
lfemur -3.8804 0.863061 -25.6604
ltibia 8.21204
lfoot 2.65407 -6.94771
ltoes -4.96146
380
root -2.89796 17.9618 15.5013 207.005 -81.5317 -211.265
lowerback 11.6088 2.45434 -3.11006
upperback 1.50749 2.72249 -1.18641
thorax -5.01397 1.35668 0.0826627
lowerneck -20.1788 -6.82264 -12.7416
upperneck 27.6337 -9.61688 11.3661
head 14.0191 -4.24264 4.91396
rclavicle 1.64059e-014 -4.96962e-016
rhumerus -34.2039 -13.4038 -80.8186
rradius 29.8059
rwrist 7.03457
rhand -15.21 10.6491
rfingers 7.12502
rthumb 10.9622 -19.0447
lclavicle 1.64059e-014 -4.96962e-016
lhumerus -38.1878 8.19105 79.7887
lradius 27.4911
lwrist -7.04547
lhand -17.2115 24.3532
lfingers 7.12502
lthumb 9.03129 54.1398
rfemur -4.6892 -4.6975 15.0285
rtibia 65.1544
rfoot 10.4647 -6.16513
rtoes 22.6935
lfemur -2.6926 0.852821 -26.0831
ltibia 7.04126
lfoot 2.81468 -7.18906
ltoes -4.96934
381
root -3.02337 17.969 15.513 209.546 -81.6983 -213.979
lowerback 11.7006 2.31825 -3.32763
upperback 1.54369 2.50849 -1.19264
thorax -5.03028 1.25409 0.229887
lowerneck -20.13 -6.71815 -12.7073
upperneck 27.6031 -9.43733 11.2593
head 13.9572 -4.17543 4.8988
rclavicle -1.08586e-014 -2.68359e-015
rhumerus -34.317 -13.47 -80.6326
rradius 29.8569
rwrist 7.36523
rhand -14.8777 10.8401
rfingers 7.12502
rthumb 11.2827 -18.8364
lclavicle -1.08586e-014 -2.68359e-015
lhumerus -37.8524 7.77932 79.9949
lradius 27.7894
lwrist -6.53205
lhand -17.5203 24.2885
lfingers 7.12502
lthumb 8.73329 54.0878
rfemur -5.72164 -5.46473 14.5438
rtibia 66.5895
rfoot 9.25924 -6.50505
rtoes 22.074
lfemur -1.39454 0.772612 -26.4764
ltibia 5.67399
lfoot 3.07517 -7.45935
ltoes -5.39453
382
root -3.14684 17.9741 15.5264 210.728 -81.786 -215.3
lowerback 11.7915 2.20477 -3.39994
upperback 1.55262 2.34775 -1.13522
thorax -5.0717 1.177 0.353403
lowerneck -20.0691 -6.63192 -12.7798
upperneck 27.5845 -9.22768 11.0914
head 13.8963 -4.11396 4.88305
rclavicle -6.60959e-015 1.55052e-014
rhumerus -34.4887 -13.5079 -80.395
rradius 29.9783
rwrist 7.68428
rhand -14.799 10.7869
rfingers 7.12502
rthumb 11.3586 -18.8855
lclavicle -6.60959e-015 1.55052e-014
lhumerus -37.4126 7.4964 80.1993
lradius 27.9108
lwrist -6.12991
lhand -17.5332 24.0686
lfingers 7.12502
lthumb 8.72086 53.8685
rfemur -6.81701 -6.07014 14.1913
rtibia 67.857
rfoot 8.23836 -6.42979
rtoes 22.0584
lfemur -0.030752 0.856527 -26.707
ltibia 4.14438
lfoot 3.38466 -7.71535
ltoes -5.56201
383
root -3.26809 17.9771 15.5352 211.937 -81.8331 -216.59
lowerback 11.855 2.13412 -3.54764
upperback 1.49875 2.23541 -1.07856
thorax -5.16785 1.12724 0.510257
lowerneck -19.9635 -6.61829 -12.8629
upperneck 27.6404 -9.14219 10.9193
head 13.878 -4.11183 4.84577
rclavicle 1.18774e-014 3.97569e-015
rhumerus -34.8022 -13.6906 -80.1127
rradius 30.1771
rwrist 7.7732
rhand -14.8025 10.6731
rfingers 7.12502
rthumb 11.3552 -18.9995
lclavicle 1.18774e-014 3.97569e-015
lhumerus -37.2433 7.30692 80.2969
lradius 28.2298
lwrist -6.04394
lhand -17.3148 24.1159
lfingers 7.12502
lthumb 8.93161 53.9069
rfemur -7.9781 -6.59534 13.8986
rtibia 68.9574
rfoot 7.54866 -5.88015
rtoes 21.8897
lfemur 1.18297 0.971493 -26.9368
ltibia 2.75965
lfoot 3.64077 -7.9207
ltoes -5.56878
384
root -3.38944 17.9828 15.5414 212.498 -81.9958 -217.25
lowerback 11.9213 2.07083 -3.52102
upperback 1.46383 2.15437 -1.04069
thorax -5.23887 1.08887 0.545284
lowerneck -19.7409 -6.58114 -12.7177
upperneck 27.5699 -9.06729 10.6449
head 13.7628 -4.10473 4.72146
rclavicle -3.76448e-015 8.74653e-015
rhumerus -35.049 -14.0456 -79.8695
rradius 30.2575
rwrist 7.89764
rhand -14.7574 10.5759
rfingers 7.12502
rthumb 11.3987 -19.0942
lclavicle -3.76448e-015 8.74653e-015
lhumerus -37.138 7.31918 80.2071
lradius 28.617
lwrist -6.23023
lhand -17.5685 24.2358
lfingers 7.12502
lthumb 8.68672 54.0371
rfemur -9.07585 -7.1218 13.8173
rtibia 69.8691
rfoot 7.16365 -5.10222
rtoes 23.2913
lfemur 2.08209 1.03893 -27.0054
ltibia 2.05406
lfoot 3.57854 -8.0551
ltoes -5.74888
385
root -3.51063 17.9879 15.5477 212.937 -82.171 -217.767
lowerback 11.9245 1.96453 -3.47932
upperback 1.46209 2.02307 -0.983024
thorax -5.23808 1.02454 0.603913
lowerneck -19.511 -6.46577 -12.4887
upperneck 27.3657 -8.86095 10.2992
head 13.562 -4.0373 4.57568
rclavicle 3.14577e-014 -2.20651e-014
rhumerus -35.2308 -14.1498 -79.7022
rradius 30.3773
rwrist 7.81221
rhand -14.8414 10.4566
rfingers 7.12502
rthumb 11.3177 -19.218
lclavicle 3.14577e-014 -2.20651e-014
lhumerus -36.8942 7.47005 80.0909
lradius 28.9436
lwrist -6.32591
lhand -17.8131 24.0784
lfingers 7.12502
lthumb 8.45071 53.8893
rfemur -10.1502 -7.65676 13.7386
rtibia 70.6018
rfoot 6.62975 -4.59236
rtoes 24.0276
lfemur 2.6946 1.10502 -27.0417
ltibia 1.84706
lfoot 3.29483 -8.14693
ltoes -5.66856
386
root -3.63172 17.9909 15.547 213.841 -82.3347 -218.739
lowerback 11.9076 1.81799 -3.6422
upperback 1.45166 1.81563 -0.876448
thorax -5.24026 0.927653 0.841625
lowerneck -19.5518 -6.33813 -12.3531
upperneck 27.4839 -8.65487 10.0745
head 13.569 -3.96216 4.50323
rclavicle 2.93207e-014 -1.82882e-014
rhumerus -35.4689 -14.1713 -79.5002
rradius 30.6501
rwrist 7.42262
rhand -15.0019 10.3349
rfingers 7.12502
rthumb 11.1629 -19.3481
lclavicle 2.93207e-014 -1.82882e-014
lhumerus -36.6838 7.23699 80.1318
lradius 29.3553
lwrist -5.83102
lhand -17.6704 24.0431
lfingers 7.12502
lthumb 8.58843 53.8484
rfemur -11.1895 -7.95378 13.6349
rtibia 71.1368
rfoot 5.5944 -4.84307
rtoes 24.8455
lfemur 2.86418 1.14501 -27.1067
ltibia 2.48022
lfoot 2.66012 -8.14367
ltoes -4.78052
387
root -3.75351 17.9927 15.541 214.962 -82.4248 -220.009
lowerback 11.8906 1.72084 -3.90344
upperback 1.50063 1.65744 -0.811448
thorax -5.18188 0.853851 1.08403
lowerneck -19.7403 -6.26789 -12.463
upperneck 27.8154 -8.59405 10.2442
head 13.756 -3.92811 4.61242
rclavicle 4.04651e-014 -2.18663e-014
rhumerus -35.7045 -14.5114 -79.2998
rradius 30.9277
rwrist 7.12863
rhand -15.1237 10.2539
rfingers 7.12502
rthumb 11.0454 -19.4355
lclavicle 4.04651e-014 -2.18663e-014
lhumerus -36.6216 6.73023 80.1636
lradius 30.0362
lwrist -5.10457
lhand -17.5949 24.2991
lfingers 7.12502
lthumb 8.66126 54.1014
rfemur -12.1135 -8.05602 13.5041
rtibia 71.5255
rfoot 4.55649 -4.95471
rtoes 25.4198
lfemur 2.86616 1.23294 -27.2142
ltibia 3.61528
lfoot 1.78011 -8.15762
ltoes -4.09143
388
root -3.86875 17.9872 15.5394 215.914 -82.5609 -221.123
lowerback 11.9507 1.67894 -3.97686
upperback 1.5492 1.59085 -0.778586
thorax -5.16379 0.821279 1.17015
lowerneck -19.6769 -6.28704 -12.6527
upperneck 27.8348 -8.62742 10.4137
head 13.7762 -3.94523 4.71019
rclavicle 3.60297e-015 -9.14409e-015
rhumerus -35.9792 -14.8192 -79.1336
rradius 31.2096
rwrist 6.68577
rhand -15.1995 10.1389
rfingers 7.12502
rthumb 10.9724 -19.5544
lclavicle 3.60297e-015 -9.14409e-015
lhumerus -36.2848 6.31124 80.1
lradius 30.4161
lwrist -4.66278
lhand -17.4664 24.3697
lfingers 7.12502
lthumb 8.78524 54.1668
rfemur -12.9525 -8.50492 13.4518
rtibia 71.7909
rfoot 3.8653 -4.36892
rtoes 23.8975
lfemur 2.9573 1.29817 -27.2654
ltibia 4.55405
lfoot 0.955357 -8.28281
ltoes -4.43938
389
root -3.97945 17.9764 15.5402 217.041 -82.6926 -222.335
lowerback 11.9742 1.57174 -4.03306
upperback 1.5728 1.44181 -0.751098
thorax -5.14648 0.748511 1.25509
lowerneck -19.5744 -6.21857 -12.7356
upperneck 27.7624 -8.52093 10.4694
head 13.7149 -3.90341 4.76675
rclavicle 9.38015e-015 7.35503e-015
rhumerus -36.1824 -14.9104 -79.0106
rradius 31.4688
rwrist 6.11928
rhand -15.3086 10.0647
rfingers 7.12502
rthumb 10.8671 -19.6342
lclavicle 9.38015e-015 7.35503e-015
lhumerus -35.8654 5.7378 80.065
lradius 30.7445
lwrist -3.84848
lhand -17.4256 24.3868
lfingers 7.12502
lthumb 8.82468 54.1823
rfemur -13.8383 -9.03445 13.4173
rtibia 71.901
rfoot 3.15186 -3.67237
rtoes 21.7208
lfemur 2.98589 1.35069 -27.3309
ltibia 5.44874
lfoot 0.10025 -8.36043
ltoes -5.20789
390
root -4.09153 17.9691 15.5431 218.597 -82.7967 -223.938
lowerback 12.0148 1.42601 -4.16693
upperback 1.5561 1.23193 -0.701613
thorax -5.17938 0.649347 1.41598
lowerneck -19.6808 -6.14072 -12.6208
upperneck 27.9123 -8.38021 10.2603
head 13.7617 -3.85548 4.69165
rclavicle 5.70264e-015 4.77083e-015
rhumerus -36.3587 -14.8814 -78.8674
rradius 31.6686
rwrist 5.4941
rhand -14.8035 9.65319
rfingers 7.12502
rthumb 11.3542 -20.0194
lclavicle 5.70264e-015 4.77083e-015
lhumerus -35.652 6.19185 80.0195
lradius 31.1163
lwrist -3.9366
lhand -17.7764 24.4483
lfingers 7.12502
lthumb 8.48611 54.2578
rfemur -14.7796 -9.28383 13.3432
rtibia 71.8486
rfoot 2.36856 -3.30704
rtoes 20.5253
lfemur 2.8459 1.38863 -27.4862
ltibia 6.62772
lfoot -0.875552 -8.31401
ltoes -5.83436
